<?xml version="1.0"?>
<svg xmlns="http://www.w3.org/2000/svg" width="512px" height="512px" viewBox="0 0 512 512"><g><g><path d="M64,128H80a32,32,0,0,0,0-64H56a8,8,0,0,0-8,8v72a8,8,0,0,0,16,0ZM96,96a16.019,16.019,0,0,1-16,16H64V80H80A16.019,16.019,0,0,1,96,96Z" data-original="#000000" class="active-path" data-old_color="#000000" fill="#1273EB"/><path d="M367.59,333.47A8,8,0,0,0,360,328H264a8,8,0,0,0-7.59,5.47l-16,48A8,8,0,0,0,248,392H376a8,8,0,0,0,7.59-10.53ZM259.1,376l10.666-32h84.468L364.9,376Z" data-original="#000000" class="active-path" data-old_color="#000000" fill="#1273EB"/><path d="M200,328a32,32,0,1,0,32,32A32.036,32.036,0,0,0,200,328Zm0,48a16,16,0,1,1,16-16A16.019,16.019,0,0,1,200,376Z" data-original="#000000" class="active-path" data-old_color="#000000" fill="#1273EB"/><path d="M424,328a32,32,0,1,0,32,32A32.036,32.036,0,0,0,424,328Zm0,48a16,16,0,1,1,16-16A16.019,16.019,0,0,1,424,376Z" data-original="#000000" class="active-path" data-old_color="#000000" fill="#1273EB"/><path d="M496,464H470.62a23.841,23.841,0,0,0,1.38-8V440h8a8,8,0,0,0,8-8V408a8,8,0,0,0-8-8V336a32.036,32.036,0,0,0-32-32H430.68l-10.45-57.43-.78-4.29A31.969,31.969,0,0,0,387.97,216H236.03a31.969,31.969,0,0,0-31.48,26.28l-.78,4.29L193.32,304H176a32.036,32.036,0,0,0-32,32v64a8,8,0,0,0-8,8v24a8,8,0,0,0,8,8h8v16a23.841,23.841,0,0,0,1.38,8H136V448a8,8,0,0,0-8-8H88V208h8a8,8,0,0,0,8-8V184h32a8,8,0,0,0,8-8V40a8,8,0,0,0-8-8H24a8,8,0,0,0-8,8V176a8,8,0,0,0,8,8H56v16a8,8,0,0,0,8,8h8V440H32a8,8,0,0,0-8,8v16H16a8,8,0,0,0,0,16H496a8,8,0,0,0,0-16ZM88,192H72v-8H88ZM32,168V48h96V168Zm88,296H40v-8h80ZM236.03,232H387.97a15.979,15.979,0,0,1,13.86,8H222.17A15.979,15.979,0,0,1,236.03,232Zm-17.71,24H405.68l8.73,48H209.59ZM160,336a16.021,16.021,0,0,1,16-16H448a16.021,16.021,0,0,1,16,16v64H160Zm40,120a8.011,8.011,0,0,1-8,8H176a8.011,8.011,0,0,1-8-8V440h32Zm14.62,8a23.841,23.841,0,0,0,1.38-8V440H408v16a23.841,23.841,0,0,0,1.38,8ZM456,456a8.011,8.011,0,0,1-8,8H432a8.011,8.011,0,0,1-8-8V440h32ZM152,424v-8H472v8Z" data-original="#000000" class="active-path" data-old_color="#000000" fill="#1273EB"/></g></g> </svg>
