<?xml version="1.0"?>
<svg xmlns="http://www.w3.org/2000/svg" id="Layer_5" enable-background="new 0 0 64 64" height="512px" viewBox="0 0 64 64" width="512px"><g><g><g><g><path d="m47.943 16.272-.045-12.33c-.004-1.1-.907-1.997-2.007-1.993l-34 .123c-1.1.004-1.997.907-1.993 2.007l.058 16c.004 1.1.907 1.997 2.007 1.993l10-.036 4.607 4.573c.261.259.621.408 1.001.406.78-.003 1.408-.635 1.405-1.415l-.013-3.59 4-.014c-.002-.65 1.275-1.525 2.991-2.401l7.79-3.227c.063-.023.139-.051.198-.072.01 0 .02-.01.03-.01.629-.222 1.299-.335 1.969-.337s1.34.105 1.971.323c.01 0 .02.01.03.01z" fill="#e6e9ed" data-original="#E6E9ED"/></g><g><path d="m24.022 38.029s2.047 12.993 2.058 15.993c.009 2.46-7.387 6.297-10.043 7.596-.599.292-1.258.445-1.928.447s-1.331-.145-1.932-.433c-2.665-1.28-10.088-5.064-10.097-7.524-.011-3 1.942-16.007 1.942-16.007l.34-.001c3.63-.013 7.095-1.466 9.645-4.035 1.285 1.275 2.798 2.27 4.441 2.944 1.642.674 3.414 1.028 5.234 1.021z" fill="#ffeaa7" data-original="#FFEAA7"/></g><g><path d="m35.099 26.169c1.036 1.546 2.38 2.821 3.914 3.776l-.02.03.004 1-1 .004c-1.66.006-2.995 1.351-2.989 3.011l-.029-8z" fill="#b27946" data-original="#B27946"/></g><g><path d="m56.978 25.91.029 8c-.003-.83-.346-1.579-.888-2.117s-1.293-.875-2.123-.872l-1 .004-.004-1.03-.01-.01c1.527-.956 2.852-2.25 3.876-3.794z" fill="#b27946" data-original="#B27946"/></g><g><path d="m56.978 25.91-.119.18c-1.024 1.544-2.35 2.839-3.876 3.794-2.056 1.328-4.473 2.056-6.983 2.065-2.18.008-4.302-.534-6.176-1.528-.281-.149-.551-.308-.812-.477-1.533-.954-2.878-2.23-3.914-3.776l-.121-.18z" fill="#aab2bd" data-original="#AAB2BD"/></g><g><path d="m56.978 25.91-22 .08s-2.007-1.993-2.014-3.993c-.002-.65 1.274-1.525 2.991-2.401 2.615-1.329 6.25-2.673 7.988-3.299.01 0 .02-.01.03-.01.629-.222 1.299-.335 1.969-.337s1.34.105 1.971.323c.01 0 .02.01.03.01 2.884 1.01 11.014 3.98 11.02 5.62.008 1.999-1.985 4.007-1.985 4.007z" fill="#969faa" data-original="#969FAA"/></g><g><circle cx="45.96" cy="20.949" fill="#ff826e" r="2" data-original="#FF826E"/></g><g><path d="m36.109 61.985-6 .022-.03-8.23c-.01-2.79 1.911-5.227 4.629-5.857l5.855-1.371.517 7.418 2.722-2.19 1.281 3.175-1.975 7.007z" fill="#4fc1e9" data-original="#4FC1E9"/></g><g><path d="m56.108 61.913-7 .025-2.025-6.993 1.258-3.185 2.738 2.17.463-7.422 5.865 1.329c2.722.61 4.661 3.033 4.671 5.823l.03 8.23z" fill="#4fc1e9" data-original="#4FC1E9"/></g><g><path d="m47.083 54.946 2.025 6.992-6 .022 1.975-7.007z" fill="#fcd770" data-original="#FCD770"/></g><g><path d="m48.342 51.761-1.259 3.185-2 .007-1.281-3.176 2.263-1.828z" fill="#ffc729" data-original="#FFC729"/></g><g><path d="m43.051 45.96 3.014 3.989-2.263 1.828-2.722 2.19-.517-7.418v-.01z" fill="#3bafda" data-original="#3BAFDA"/></g><g><path d="m51.543 46.499v.01l-.464 7.422-2.737-2.17-2.277-1.812 2.986-4.011z" fill="#3bafda" data-original="#3BAFDA"/></g><g><path d="m43.041 43.3c.902.437 1.912.653 3.002.649s2.099-.228 2.998-.671l.01 2.66-2.986 4.011-3.014-3.989z" fill="#f0d0b4" data-original="#F0D0B4"/></g><g><path d="m53.996 30.92c.83-.003 1.581.334 2.123.872s.885 1.287.888 2.117c.006 1.66-1.329 3.005-2.989 3.011l-1.04.004c.029-.32.038-.66.036-1l-.018-5z" fill="#f0d0b4" data-original="#F0D0B4"/></g><g><path d="m52.996 30.924.018 5c.001.34-.008.68-.036 1-.173 2.041-.867 3.693-1.942 4.887-.568.622-1.236 1.124-1.995 1.467-.898.443-1.908.667-2.998.671s-2.101-.212-3.002-.649c-2.184-1.002-3.702-3.217-3.983-6.326-.031-.32-.042-.66-.044-1l-.018-5-.004-1 .02-.03c.261.169.531.328.812.477 1.874.993 3.996 1.536 6.176 1.528 2.51-.009 4.927-.738 6.983-2.065l.01.01z" fill="#f0d0b4" data-original="#F0D0B4"/></g><g><path d="m39.058 36.974-1.04.004c-.83.003-1.581-.334-2.123-.872s-.885-1.287-.888-2.117c-.006-1.66 1.329-3.005 2.989-3.011l1-.004.018 5c.002.341.013.681.044 1z" fill="#f0d0b4" data-original="#F0D0B4"/></g></g><g><path d="m24.858 37h-1.201c-3.381 0-6.559-1.316-8.95-3.707l-.707-.707-.707.707c-2.391 2.391-5.569 3.707-8.95 3.707h-1.201l-.13.848c-.082.534-2.012 13.11-2.012 16.152 0 2.197 3.577 5.042 10.632 8.459.741.359 1.537.541 2.368.541s1.627-.182 2.368-.541c7.055-3.417 10.632-6.262 10.632-8.459 0-3.042-1.93-15.618-2.012-16.152zm-9.362 23.659c-.934.452-2.059.452-2.992 0-6.973-3.377-9.504-5.832-9.504-6.659 0-2.456 1.422-12.093 1.861-15.009 3.398-.117 6.594-1.387 9.139-3.621 2.544 2.234 5.741 3.504 9.139 3.621.439 2.916 1.861 12.552 1.861 15.009 0 .827-2.531 3.282-9.504 6.659z" data-original="#000000" class="active-path" style="fill:#1273EB" data-old_color="#000000"/><path d="m10 53.586-2.293-2.293-1.414 1.414 3.707 3.707 11.707-11.707-1.414-1.414z" data-original="#000000" class="active-path" style="fill:#1273EB" data-old_color="#000000"/><path d="m21 8.92c0-2.162-1.758-3.92-3.92-3.92h-.16c-2.162 0-3.92 1.758-3.92 3.92v1.08h2v-1.08c0-1.059.861-1.92 1.92-1.92h.16c1.059 0 1.92.861 1.92 1.92 0 .458-.164.902-.462 1.25l-5.538 6.46v2.37h8v-2h-5.683l4.739-5.529c.609-.71.944-1.616.944-2.551z" data-original="#000000" class="active-path" style="fill:#1273EB" data-old_color="#000000"/><path d="m31 5h-2.515l-5.485 7.68v2.32h6v4h2v-4h2v-2h-2zm-2 8h-3.771l3.771-5.279z" data-original="#000000" class="active-path" style="fill:#1273EB" data-old_color="#000000"/><path d="m46 41c2.206 0 4-1.794 4-4h-2c0 1.103-.897 2-2 2s-2-.897-2-2h-2c0 2.206 1.794 4 4 4z" data-original="#000000" class="active-path" style="fill:#1273EB" data-old_color="#000000"/><path d="m57.574 46.952-7.574-1.747v-1.262c1.992-1.179 3.372-3.276 3.83-5.942h.17c2.206 0 4-1.794 4-4v-7.611c.627-.705 2-2.464 2-4.389 0-.734-.008-2.434-11-6.361v-11.64c0-1.654-1.346-3-3-3h-34c-1.654 0-3 1.346-3 3v16c0 1.654 1.346 3 3 3h9.586l4.293 4.293c.456.456 1.062.707 1.707.707 1.331 0 2.414-1.083 2.414-2.414v-2.586h2.127c.348 1.518 1.357 2.809 1.873 3.389v7.611c0 2.206 1.794 4 4 4h.17c.458 2.666 1.838 4.764 3.83 5.942v1.262l-7.574 1.748c-3.195.738-5.426 3.543-5.426 6.821v9.227h34v-9.227c0-3.278-2.231-6.083-5.426-6.821zm-7.142.405-.305 4.664-2.746-2.196 2.028-2.704zm-4.432.976-2-2.667v-.916c.633.159 1.298.25 2 .25s1.367-.091 2-.249v.916zm1.069 3.803-.746 1.864h-.646l-.746-1.864 1.069-.856zm6.931-16.136v-4c1.103 0 2 .897 2 2s-.897 2-2 2zm2-5.444c-.431-.251-.908-.423-1.422-.498.501-.386.974-.808 1.422-1.262zm-23.67-9.556h-4.33v4.586c0 .338-.468.531-.707.293l-4.879-4.879h-10.414c-.551 0-1-.449-1-1v-16c0-.551.449-1 1-1h34c.551 0 1 .449 1 1v11.085c-.663-.095-1.337-.095-2 0v-10.085h-2v6h-6v-6h-2v14.011c-1.562.85-2.312 1.497-2.67 1.989zm10.67-8v2.639c-2.54.907-4.498 1.697-6 2.382v-5.021zm-8.998 9.1c.431-.643 3.47-2.405 10.357-4.822 1.05-.368 2.23-.368 3.281 0 6.887 2.417 9.926 4.179 10.357 4.822-.051 1.066-.895 2.267-1.437 2.9h-21.121c-.542-.633-1.386-1.834-1.437-2.9zm1.998 6.697c.448.454.921.876 1.422 1.262-.513.075-.991.247-1.422.498zm2 7.203c-1.103 0-2-.897-2-2s.897-2 2-2zm-.964-9h17.927c-2.272 2.525-5.508 4-8.964 4s-6.69-1.475-8.963-4zm2.964 9v-4.366c1.85.872 3.886 1.366 6 1.366s4.15-.494 6-1.366v4.366c0 4.252-2.355 7-6 7s-6-2.748-6-7zm2.591 11.121 2.028 2.704-2.746 2.196-.305-4.664zm-.345 13.879h-5.246v-6h-2v6h-4v-7.227c0-2.342 1.594-4.345 3.876-4.872l4.717-1.089.534 8.166 3.172-2.538.645 1.613zm2.08 0 1.429-5h.491l1.429 5zm16.674 0h-4v-6h-2v6h-5.246l-1.699-5.946.645-1.613 3.172 2.538.534-8.166 4.717 1.089c2.283.526 3.877 2.529 3.877 4.871z" data-original="#000000" class="active-path" style="fill:#1273EB" data-old_color="#000000"/><path d="m49 35c.552 0 1-.448 1-1 0-.005-.003-.009-.003-.015.001-.018.01-.033.01-.051-.002-.55-.454-.998-1.004-.996s-.998.454-.996 1.004c0 .004.002.007.002.011 0 .017-.009.03-.009.047 0 .552.448 1 1 1z" data-original="#000000" class="active-path" style="fill:#1273EB" data-old_color="#000000"/><path d="m43 35c.552 0 1-.448 1-1 0-.001-.001-.002-.001-.004.001-.014.008-.026.008-.04-.002-.55-.454-.998-1.004-.996s-.998.454-.996 1.004c0 .013-.007.023-.007.036 0 .552.448 1 1 1z" data-original="#000000" class="active-path" style="fill:#1273EB" data-old_color="#000000"/><path d="m46 18c-1.654 0-3 1.346-3 3s1.346 3 3 3 3-1.346 3-3-1.346-3-3-3zm0 4c-.551 0-1-.449-1-1s.449-1 1-1 1 .449 1 1-.449 1-1 1z" data-original="#000000" class="active-path" style="fill:#1273EB" data-old_color="#000000"/></g></g></g> </svg>
