<?xml version="1.0" encoding="iso-8859-1"?>
<!-- Generator: Adobe Illustrator 19.0.0, SVG Export Plug-In . SVG Version: 6.00 Build 0)  -->
<svg version="1.1" id="Capa_1" xmlns="http://www.w3.org/2000/svg" xmlns:xlink="http://www.w3.org/1999/xlink" x="0px" y="0px"
	 viewBox="0 0 512 512" style="enable-background:new 0 0 512 512;" xml:space="preserve">
<g>
	<g>
		<g>
			<circle cx="442" cy="461" r="10"/>
			<path d="M502,0H10C4.478,0,0,4.478,0,10v492c0,5.522,4.478,10,10,10h492c5.522,0,10-4.478,10-10V10C512,4.478,507.522,0,502,0z
				 M491.277,20C486.419,53.325,457.651,79,423,79c-20.066,0-39.113-8.737-52.255-23.972c-3.559-4.125-7.641-3.565-12.257-2.278
				c-11.991,3.343-24.418,2.929-35.543-2.978c-4.284-2.274-9.579-1.147-12.567,2.673C297.183,69.32,277.362,79,256,79
				s-41.183-9.68-54.378-26.556c-2.987-3.819-8.285-4.947-12.567-2.673c-11.194,5.945-24.872,6.831-36.741,2.415
				c-3.915-1.455-8.327-0.323-11.059,2.841C128.113,70.263,109.066,79,89,79c-34.651,0-63.419-25.675-68.277-59H491.277z
				 M339.3,157.979c4.86,21.54,13.11,42.44,24.5,62.13c9.09,15.69,20.19,30.66,33.01,44.5c4.715,5.086,9.306,9.632,13.623,13.653
				c-68.556-21.36-110.86-121.063-130.849-182.413c15.756-4.302,30.054-12.893,41.402-25.06c12.433,4.698,26.365,5.461,39.155,2.186
				C376.783,89.589,399.34,99,423,99c1.855,0,3.694-0.064,5.521-0.176c0.091,19.458,1.056,43.999,4.233,69.515
				c6.571,52.78,20.15,90.96,40.498,114.047h-26.15c-5.463-3.749-20.867-15.022-37.532-33.456
				c-17.779-19.649-41.019-52.138-50.759-95.347c-1.141-5.06-6.626-8.752-11.957-7.553
				C341.598,147.211,338.111,152.74,339.3,157.979z M165.149,146.03c-5.046-1.134-10.759,2.191-11.96,7.55
				c-11.532,51.175-45.337,99.002-88.299,128.805H38.748c20.348-23.087,33.927-61.267,40.498-114.047
				c3.176-25.512,4.144-50.06,4.234-69.515C85.307,98.936,87.146,99,89,99c23.66,0,46.217-9.411,62.859-26.025
				c12.79,3.275,26.724,2.513,39.155-2.186c11.348,12.167,25.646,20.758,41.402,25.06
				c-19.989,61.354-62.294,161.062-130.854,182.417c4.32-4.023,8.915-8.574,13.627-13.657c12.82-13.84,23.92-28.81,33.011-44.5
				c11.39-19.689,19.63-40.59,24.5-62.13C173.91,152.61,170.531,147.242,165.149,146.03z M20,66.147
				c11.13,13.652,26.221,23.949,43.506,29.126c0.013,19.228-0.839,44.347-4.106,70.595C54.723,203.43,44.093,249.626,20,273.064
				V66.147z M20,302.387l55.895-0.001c17.371,0,19.713,8.522,19.713,16.858c0,7.901-2.112,15.963-17.117,16.785
				C78.327,336.021,20,336,20,336V302.387z M125.908,492C125.805,492,20,492,20,492V356.104h17.066
				c1.864,2.822,4.529,7.399,7.374,14.046c6.091,14.25,10.48,31.74,13.04,52.011c0.63,4.989,4.891,8.75,9.92,8.75
				c0.41,0,0.841-0.03,1.261-0.08c5.47-0.69,9.359-5.7,8.67-11.17c-1.63-13.051-4.05-25.301-7.19-36.431
				c-2.54-8.989-9.762-26.328-10.153-27.126c0,0,16.846-0.015,17.349-0.025c20.058-0.421,31.048,32.967,35.983,47.739
				C116.272,412.66,130.33,492,125.908,492z M366.095,492.028c-73.397-0.001-146.794,0-220.193-0.028
				c-1.182-25.564-2.388-51.297-8.199-76.22c-5.813-24.932-16.567-49.277-34.528-67.519c13.457-12.54,16.323-34.928,6.459-50.453
				c38.932-16.031,69.737-47.802,91.96-83.563c21.031-33.843,35.165-71.378,48.709-108.679c0.531-1.462,1.166-5.448,2.457-6.369
				c0.565-0.403,6.378-0.603,6.495-0.279c14.306,39.609,28.771,79.552,51,115.32s53.112,67.519,92.122,83.387
				c-9.863,15.586-7.017,38.008,6.428,50.635c-17.949,18.252-28.696,42.595-34.507,67.526
				C368.487,440.717,367.28,466.457,366.095,492.028z M492,492H386.092c1.224-65.388,14.388-99.007,25.515-115.831
				c10.304-15.577,20.247-19.31,23.064-20.091c0.477,0.01,17.342,0.025,17.342,0.025c-0.39,0.796-7.612,18.137-10.152,27.137
				c-3.139,11.118-5.559,23.367-7.189,36.417c-0.643,5.151,3.121,10.482,8.67,11.173c0.42,0.05,0.84,0.08,1.26,0.08
				c5.021,0,9.28-3.761,9.91-8.751c2.792-22.133,7.934-47.15,20.419-66.056H492V492z M492,336c0,0-58.327,0.021-58.49,0.03
				c-15.005-0.823-17.117-8.885-17.117-16.785c0-8.336,2.342-16.858,19.713-16.858H492V336z M492,273.064
				c-24.093-23.438-34.723-69.634-39.399-107.196c-3.268-26.25-4.119-51.367-4.106-70.595C465.779,90.096,480.87,79.799,492,66.147
				V273.064z"/>
			<circle cx="70" cy="461" r="10"/>
			<circle cx="168" cy="116" r="10"/>
			<circle cx="344" cy="116" r="10"/>
		</g>
	</g>
</g>
<g>
</g>
<g>
</g>
<g>
</g>
<g>
</g>
<g>
</g>
<g>
</g>
<g>
</g>
<g>
</g>
<g>
</g>
<g>
</g>
<g>
</g>
<g>
</g>
<g>
</g>
<g>
</g>
<g>
</g>
</svg>
