<svg height="512" viewBox="0 0 512 512" width="512" xmlns="http://www.w3.org/2000/svg"><g><g fill="#57a4ff"><path d="m64 176h32v24h-32z"/><path d="m32 448h96v24h-96z"/><path d="m424 312h-224l11.64-64h200.72z"/><path d="m144 408h336v24h-336z"/><path d="m192 472h-16a16 16 0 0 1 -16-16v-24h48v24a16 16 0 0 1 -16 16z"/><path d="m448 472h-16a16 16 0 0 1 -16-16v-24h48v24a16 16 0 0 1 -16 16z"/><path d="m376 384h-128l16-48h96z"/><circle cx="200" cy="360" r="24"/><circle cx="424" cy="360" r="24"/></g><g fill="#004fac"><path d="m64 128h16a32 32 0 0 0 0-64h-24a8 8 0 0 0 -8 8v72a8 8 0 0 0 16 0zm32-32a16.019 16.019 0 0 1 -16 16h-16v-32h16a16.019 16.019 0 0 1 16 16z"/><path d="m367.59 333.47a8 8 0 0 0 -7.59-5.47h-96a8 8 0 0 0 -7.59 5.47l-16 48a8 8 0 0 0 7.59 10.53h128a8 8 0 0 0 7.59-10.53zm-108.49 42.53 10.666-32h84.468l10.666 32z"/><path d="m200 328a32 32 0 1 0 32 32 32.036 32.036 0 0 0 -32-32zm0 48a16 16 0 1 1 16-16 16.019 16.019 0 0 1 -16 16z"/><path d="m424 328a32 32 0 1 0 32 32 32.036 32.036 0 0 0 -32-32zm0 48a16 16 0 1 1 16-16 16.019 16.019 0 0 1 -16 16z"/><path d="m496 464h-25.38a23.841 23.841 0 0 0 1.38-8v-16h8a8 8 0 0 0 8-8v-24a8 8 0 0 0 -8-8v-64a32.036 32.036 0 0 0 -32-32h-17.32l-10.45-57.43-.78-4.29a31.969 31.969 0 0 0 -31.48-26.28h-151.94a31.969 31.969 0 0 0 -31.48 26.28l-.78 4.29-10.45 57.43h-17.32a32.036 32.036 0 0 0 -32 32v64a8 8 0 0 0 -8 8v24a8 8 0 0 0 8 8h8v16a23.841 23.841 0 0 0 1.38 8h-17.38v-16a8 8 0 0 0 -8-8h-40v-232h8a8 8 0 0 0 8-8v-16h32a8 8 0 0 0 8-8v-136a8 8 0 0 0 -8-8h-112a8 8 0 0 0 -8 8v136a8 8 0 0 0 8 8h32v16a8 8 0 0 0 8 8h8v232h-40a8 8 0 0 0 -8 8v16h-8a8 8 0 0 0 0 16h480a8 8 0 0 0 0-16zm-408-272h-16v-8h16zm-56-24v-120h96v120zm88 296h-80v-8h80zm116.03-232h151.94a15.979 15.979 0 0 1 13.86 8h-179.66a15.979 15.979 0 0 1 13.86-8zm-17.71 24h187.36l8.73 48h-204.82zm-58.32 80a16.021 16.021 0 0 1 16-16h272a16.021 16.021 0 0 1 16 16v64h-304zm40 120a8.011 8.011 0 0 1 -8 8h-16a8.011 8.011 0 0 1 -8-8v-16h32zm14.62 8a23.841 23.841 0 0 0 1.38-8v-16h192v16a23.841 23.841 0 0 0 1.38 8zm241.38-8a8.011 8.011 0 0 1 -8 8h-16a8.011 8.011 0 0 1 -8-8v-16h32zm-304-32v-8h320v8z"/></g></g></svg>